<svg width="512" height="512" viewBox="0 0 512 512" fill="none" xmlns="http://www.w3.org/2000/svg">
<g clip-path="url(#clip0_2108_388)">
<path d="M262.17 270.08C144.317 303.193 44.6254 326.008 39.5056 307.364C36.6739 297.049 63.369 279.604 107.737 260.468C143.583 245.008 190.964 228.445 243.63 213.649C296.092 198.91 344.956 188.408 383.48 182.936C431.498 176.116 463.453 177.11 466.293 187.455C471.414 206.103 380.024 236.969 262.17 270.08ZM511.487 186.766C506.184 167.45 453.55 164.012 378.287 174.944C337.826 180.821 290.536 190.921 241.194 204.784C191.423 218.767 145.797 234.811 107.941 251.026C38.4608 280.786 -4.84485 311.121 0.433804 330.345C8.58823 360.044 129.602 351.977 270.727 312.327C411.848 272.679 519.641 216.463 511.487 186.766Z" fill="white"/>
<path d="M271.481 293.761C320.183 280.242 365.806 268.772 404.201 260.167C404.207 259.63 404.209 259.093 404.209 258.555C404.209 176.737 337.841 110.413 255.968 110.413C174.095 110.413 107.727 176.737 107.727 258.555C107.727 287.303 115.919 314.134 130.099 336.852C169.327 323.545 218.195 308.552 271.481 293.761Z" fill="white"/>
<path d="M281.674 330.553C234.001 343.784 189.276 355.054 151.397 363.596C178.201 390.237 215.143 406.703 255.935 406.703C325.136 406.703 383.26 359.319 399.596 295.245C365.027 306.479 324.796 318.581 281.674 330.553Z" fill="white"/>
<path d="M432.399 95.1436C419.267 99.5721 415.675 103.162 411.241 116.288C406.81 103.162 403.217 99.5721 390.083 95.1436C403.217 90.7124 406.81 87.1225 411.241 73.9971C415.675 87.1225 419.267 90.7124 432.399 95.1436Z" fill="#EF0380"/>
<path d="M94.7319 416.847C81.6005 421.279 78.0054 424.869 73.574 437.994C69.1426 424.869 65.5475 421.279 52.4161 416.847C65.5475 412.419 69.1426 408.829 73.574 395.704C78.0054 408.829 81.6005 412.419 94.7319 416.847Z" fill="#EF0380"/>
</g>
<defs>
<clipPath id="clip0_2108_388">
<rect width="512" height="364" fill="white" transform="translate(0 74)"/>
</clipPath>
</defs>
</svg>
